`                            __     __   __            __  __ 
                  .-----..--|  |.--|  | |  |--..---.-.|  ||  |
                  |  _  ||  _  ||  _  | |  _  ||  _  ||  ||  |
                  |_____||_____||_____| |_____||___._||__||__|
                                  -links.com   `                 

Crank: High Voltage (released as Crank 2: High Voltage in some regions and on DVD) is a 2009 American action/thriller film, and sequel to the 2006 action film, Crank. It picks up shortly after the first film left off, retaining its "real-time" feel and adding surrealism. Crank: High Voltage was written and directed by Mark Neveldine and Brian Taylor, who both wrote and directed the previous film. The film was released in the United Kingdom on April 16, 2009,[2] one day prior to its North American release date.


                                    +-+-+-+-+
                                    |c|a|s|t|
                                    +-+-+-+-+
                                         
                  Actor                              Role

                  Jason Statham .................... Chev Chelios 
                  Amy Smart ........................ Eve Lydon 
                  Efren Ramirez .................... Venus 
                  Dwight Yoakam .................... Doc Miles 
                  Reno Wilson ...................... Orlando 
                  Clifton Collins, Jr. ............. El Huron 
                  Bai Ling ......................... Ria 
                  Art Hsu .......................... Johnny Vang 
                  David Carradine .................. Poon Dong 
                  Ron Jeremy ....................... himself (cameo) 

General
Complete name                    : Crank 2 High Voltage
Format                           : AVI
Format/Info                      : Audio Video Interleave
File size                        : 1.81 GiB
Duration                         : 1h 31mn
Overall bit rate                 : 2 826 Kbps

Video
Format                           : MPEG-4 Visual
Format profile                   : Streaming Video@L1
Format settings, BVOP            : Yes
Format settings, QPel            : No
Format settings, GMC             : No warppoints
Format settings, Matrix          : Default
Muxing mode                      : Packed bitstream
Codec ID                         : XVID
Codec ID/Hint                    : XviD
Duration                         : 1h 31mn
Bit rate                         : 2 622 Kbps
Width                            : 1 024 pixels
Height                           : 582 pixels
Display aspect ratio             : 16/9
Frame rate                       : 29.970 fps
Resolution                       : 24 bits
Colorimetry                      : 4:2:0
Scan type                        : Progressive
Bits/(Pixel*Frame)               : 0.147
Stream size                      : 1.68 GiB (93%)
Writing library                  : XviD 1.1.0 (UTC 2005-11-22)

Audio
Format                           : MPEG Audio
Format version                   : Version 1
Format profile                   : Layer 3
Codec ID                         : 55
Codec ID/Hint                    : MP3
Duration                         : 1h 31mn
Bit rate mode                    : Constant
Bit rate                         : 192 Kbps
Channel(s)                       : 2 channels
Sampling rate                    : 44.1 KHz
Resolution                       : 16 bits
Video delay                      : 26ms
Stream size                      : 126 MiB (7%)
Alignment                        : Split accross interleaves
Interleave, duration             : 33 ms (1.00 video frame)
Title                            : Audio Stream
Writing library                  : LAME3.92

For more oddball torrents  http://thepiratebay.org/user/oddball-links `                                                                                                            Please seed after downloading `                                                                                            :::===  :::===== :::===== :::====       :::= === :::====  :::====
        :::     :::      :::      :::  ===      :::===== :::  === :::====
         =====  ======   ======   ===  ===      ======== ===  ===   ===  
            === ===      ===      ===  ===      === ==== ===  ===   ===  
        ======  ======== ======== =======       ===  ===  ======    ===  
                                                                         
                  :::=====  :::====  :::===== :::===== :::==== 
                  :::       :::  === :::      :::      :::  ===
                  === ===== =======  ======   ======   ===  ===
                  ===   === === ===  ===      ===      ===  ===
                   =======  ===  === ======== ======== =======